<?xml version="1.0" encoding="UTF-8"?>
<svg version="1.1" xmlns="http://www.w3.org/2000/svg" width="1280" height="1280">
<path d="M0 0 C422.4 0 844.8 0 1280 0 C1280 422.4 1280 844.8 1280 1280 C857.6 1280 435.2 1280 0 1280 C0 857.6 0 435.2 0 0 Z " fill="#000000" transform="translate(0,0)"/>
<path d="M0 0 C2.49834214 2.370503 4.5389119 4.84160669 6.671875 7.53515625 C7.661875 8.19515625 8.651875 8.85515625 9.671875 9.53515625 C11.82209264 12.71747836 13.33677003 15.94064288 14.671875 19.53515625 C15.331875 19.53515625 15.991875 19.53515625 16.671875 19.53515625 C17.49020222 21.42848159 18.30129768 23.32493358 19.109375 25.22265625 C19.56183594 26.27839844 20.01429688 27.33414063 20.48046875 28.421875 C21.52634955 31.15488154 22.20708248 33.65557962 22.671875 36.53515625 C23.331875 36.53515625 23.991875 36.53515625 24.671875 36.53515625 C37.04964323 74.51414697 44.92773113 114.0719221 52.609375 153.22265625 C52.75880554 153.97733185 52.90823608 154.73200745 53.06219482 155.509552 C54.63945397 163.49896018 56.04142092 171.40309663 56.671875 179.53515625 C57.331875 179.53515625 57.991875 179.53515625 58.671875 179.53515625 C58.84408569 180.62340698 58.84408569 180.62340698 59.01977539 181.73364258 C61.51412039 197.37356349 64.25111055 212.94281494 67.359375 228.47265625 C67.58441208 229.60376328 67.58441208 229.60376328 67.81399536 230.75772095 C68.24588422 232.92260261 68.68244812 235.08647824 69.12109375 237.25 C69.49754028 239.10806274 69.49754028 239.10806274 69.8815918 241.00366211 C70.42600229 243.43643869 71.06114478 245.85007888 71.76879883 248.24047852 C72.671875 251.53515625 72.671875 251.53515625 72.671875 255.53515625 C73.331875 255.53515625 73.991875 255.53515625 74.671875 255.53515625 C75.84288744 259.49221729 77.00794772 263.45100593 78.171875 267.41015625 C78.50574219 268.53808594 78.83960938 269.66601562 79.18359375 270.828125 C79.49941406 271.90449219 79.81523438 272.98085938 80.140625 274.08984375 C80.58051758 275.58233643 80.58051758 275.58233643 81.02929688 277.10498047 C81.671875 279.53515625 81.671875 279.53515625 81.671875 281.53515625 C82.331875 281.53515625 82.991875 281.53515625 83.671875 281.53515625 C84.991875 284.17515625 86.311875 286.81515625 87.671875 289.53515625 C90.4131315 290.29069945 90.4131315 290.29069945 93.671875 289.53515625 C96.11427526 286.79404517 97.86487732 283.71891408 99.671875 280.53515625 C100.17976563 279.73078125 100.68765625 278.92640625 101.2109375 278.09765625 C102.76771157 275.36705788 103.82345029 272.68754422 104.859375 269.72265625 C105.37564453 268.25892578 105.37564453 268.25892578 105.90234375 266.765625 C106.15628906 266.02957031 106.41023438 265.29351563 106.671875 264.53515625 C107.331875 264.53515625 107.991875 264.53515625 108.671875 264.53515625 C108.79304688 263.89449219 108.91421875 263.25382812 109.0390625 262.59375 C110.02866727 257.48586692 111.15698451 252.51265356 112.671875 247.53515625 C113.331875 247.53515625 113.991875 247.53515625 114.671875 247.53515625 C114.83623047 246.375 114.83623047 246.375 115.00390625 245.19140625 C115.95727229 238.92864396 117.2028888 233.37094182 119.671875 227.53515625 C120.331875 227.53515625 120.991875 227.53515625 121.671875 227.53515625 C121.68605469 226.97570312 121.70023438 226.41625 121.71484375 225.83984375 C122.31949123 215.6752293 126.11062268 206.53825638 130.671875 197.53515625 C133.55130123 190.95110238 136.20589061 184.28416615 138.671875 177.53515625 C139.331875 177.53515625 139.991875 177.53515625 140.671875 177.53515625 C140.754375 176.87515625 140.836875 176.21515625 140.921875 175.53515625 C141.74756863 172.23238174 143.0572005 169.5953108 144.62890625 166.59375 C145.6061906 164.664803 146.43251128 162.72943689 147.234375 160.72265625 C148.57043558 157.76008713 149.42655465 156.69066379 151.671875 154.53515625 C153.09808573 152.24598468 154.37629519 149.90294004 155.671875 147.53515625 C156.331875 147.53515625 156.991875 147.53515625 157.671875 147.53515625 C157.93742187 146.94605469 158.20296875 146.35695313 158.4765625 145.75 C162.17740586 138.89255494 169.41451059 133.61213972 176.5703125 130.78515625 C185.43945806 128.17871347 195.27904868 128.65460215 203.671875 132.53515625 C207.54451884 134.96158455 211.1156746 137.6693738 214.671875 140.53515625 C215.33316406 141.05464844 215.99445312 141.57414063 216.67578125 142.109375 C226.70341837 150.29749032 234.55427685 161.27132132 240.6015625 172.625 C242.02794089 175.1706169 243.81048516 177.29053908 245.671875 179.53515625 C248.83226209 183.92705568 251.93035319 188.36033185 254.859375 192.91015625 C256.62521437 195.46757879 258.44747216 197.37430777 260.671875 199.53515625 C261.69448258 200.76284722 262.71507609 201.99221685 263.734375 203.22265625 C269.77730061 210.16227404 276.83829042 216.59062806 285.671875 219.53515625 C285.671875 220.19515625 285.671875 220.85515625 285.671875 221.53515625 C286.92484375 221.94507813 286.92484375 221.94507813 288.203125 222.36328125 C290.52856028 223.14890128 292.84150195 223.97244921 295.140625 224.83203125 C326.69406643 236.40255805 361.63792941 238.9950187 394.96508789 240.94042969 C396.0864917 241.00649414 397.20789551 241.07255859 398.36328125 241.140625 C399.83583374 241.22026489 399.83583374 241.22026489 401.33813477 241.30151367 C403.671875 241.53515625 403.671875 241.53515625 405.671875 242.53515625 C405.671875 243.85515625 405.671875 245.17515625 405.671875 246.53515625 C405.03516373 246.58304794 404.39845245 246.63093964 403.7424469 246.68028259 C397.14029136 247.17777562 390.53864223 247.68161357 383.93725586 248.18920898 C381.47058426 248.37802719 379.00378648 248.56520431 376.53686523 248.75073242 C372.99949563 249.01704714 369.46261562 249.28918047 365.92578125 249.5625 C364.81537979 249.64483383 363.70497833 249.72716766 362.56092834 249.81199646 C361.53994553 249.89200394 360.51896271 249.97201141 359.46704102 250.05444336 C358.11135765 250.1577018 358.11135765 250.1577018 356.72828674 250.26304626 C354.68267246 250.32161257 354.68267246 250.32161257 353.671875 251.53515625 C337.0222032 254.37612767 319.73620007 253.85186831 302.89916992 253.79589844 C299.41109571 253.78442586 295.92332408 253.79133187 292.43525982 253.80278015 C275.39108472 253.85028955 258.93049744 253.74841015 242.3671875 249.2578125 C239.10737105 248.38380374 235.8229695 247.70995126 232.51171875 247.0625 C230.671875 246.53515625 230.671875 246.53515625 227.671875 244.53515625 C226.22651198 244.01818184 224.76634243 243.54150563 223.296875 243.09765625 C219.76963888 241.95835323 216.67987934 240.76690141 213.671875 238.53515625 C213.671875 237.87515625 213.671875 237.21515625 213.671875 236.53515625 C212.2796875 236.38046875 212.2796875 236.38046875 210.859375 236.22265625 C207.44872788 235.48702648 206.91442643 234.97271215 204.671875 232.53515625 C202.07271962 231.34487641 202.07271962 231.34487641 199.671875 230.53515625 C199.671875 229.21515625 199.671875 227.89515625 199.671875 226.53515625 C206.79001237 222.74617356 213.68808998 221.35022901 221.671875 220.53515625 C222.88810547 220.39013672 222.88810547 220.39013672 224.12890625 220.2421875 C232.6069042 219.70779921 240.7158944 222.95084701 248.671875 225.53515625 C247.24137117 222.67414859 245.35137091 222.23002548 242.484375 220.84765625 C235.4256761 217.41962784 235.4256761 217.41962784 231.9375 215.62109375 C231.01167114 215.14675903 231.01167114 215.14675903 230.06713867 214.6628418 C228.31058305 213.76175006 226.55564439 212.85750839 224.80078125 211.953125 C216.14196285 208.02909119 204.70429734 208.1620453 195.734375 211.09765625 C180.7993971 217.43839391 172.73724371 232.88198428 166.171875 246.84765625 C165.77242676 247.69360352 165.37297852 248.53955078 164.96142578 249.41113281 C162.70426898 254.22602956 160.58668014 259.05209044 158.6953125 264.0234375 C157.3186429 267.40205792 155.73995281 270.68006047 154.171875 273.97265625 C151.693017 279.18550083 149.50354035 284.38503707 147.69140625 289.875 C146.56348231 292.81797396 145.19244833 295.55876138 143.76245117 298.36450195 C142.66339713 300.55203037 141.62137641 302.75856729 140.59375 304.98046875 C124.18869414 340.39646484 124.18869414 340.39646484 109.671875 351.53515625 C108.2178125 352.67984375 108.2178125 352.67984375 106.734375 353.84765625 C102.83283213 355.997486 99.03511381 356.7982537 94.671875 357.53515625 C94.671875 358.19515625 94.671875 358.85515625 94.671875 359.53515625 C79.63508977 360.11910907 71.51265874 358.99575805 59.54296875 349.33984375 C58.61677734 348.44652344 58.61677734 348.44652344 57.671875 347.53515625 C57.671875 346.87515625 57.671875 346.21515625 57.671875 345.53515625 C56.681875 345.20515625 55.691875 344.87515625 54.671875 344.53515625 C49.7055526 338.29813302 40.671875 326.7230236 40.671875 318.53515625 C40.011875 318.53515625 39.351875 318.53515625 38.671875 318.53515625 C38.39923828 317.69984375 38.39923828 317.69984375 38.12109375 316.84765625 C35.72445007 309.57169185 33.36828828 302.49898416 29.63671875 295.78515625 C28.52090404 293.18309442 27.88157963 290.54166429 27.2277832 287.79248047 C26.21763746 283.69067655 24.98172314 279.6517176 23.796875 275.59765625 C21.53225308 267.76979188 19.49951601 259.93343164 17.7265625 251.98046875 C16.86113707 248.18724785 15.83392276 244.44641003 14.80639648 240.6940918 C12.7418032 233.0343481 11.05957315 225.31814628 9.46484375 217.546875 C9.17402497 216.15074306 8.88261272 214.75473462 8.59065247 213.35884094 C7.37272168 207.53121879 6.164109 201.7016871 4.96166992 195.87084961 C4.07462445 191.57372737 3.17966483 187.27831544 2.27734375 182.984375 C2.13048 182.28464443 1.98361626 181.58491386 1.83230209 180.86397934 C-0.4423141 170.08655083 -3.0708211 159.44605451 -6.11689758 148.85612488 C-7.76757176 143.04641417 -8.8418356 137.55993594 -9.328125 131.53515625 C-9.988125 131.53515625 -10.648125 131.53515625 -11.328125 131.53515625 C-11.60785156 130.395625 -11.88757813 129.25609375 -12.17578125 128.08203125 C-14.41962684 119.14668353 -16.92115704 110.3626233 -19.953125 101.66015625 C-20.24195557 100.82323242 -20.53078613 99.98630859 -20.82836914 99.12402344 C-22.31459762 94.94536442 -23.9609626 91.30826965 -26.328125 87.53515625 C-26.328125 86.87515625 -26.328125 86.21515625 -26.328125 85.53515625 C-29.41622195 83.77052942 -30.56124636 83.53515625 -34.328125 83.53515625 C-38.8034226 87.95841551 -40.56104244 94.6569416 -42.3359375 100.5078125 C-43.328125 103.53515625 -43.328125 103.53515625 -44.73828125 106.6953125 C-46.88675952 111.6058326 -48.22094015 116.75186097 -49.640625 121.91015625 C-50.09139404 123.53618774 -50.09139404 123.53618774 -50.55126953 125.19506836 C-52.72635115 133.13245895 -54.76476395 141.09930356 -56.703125 149.09765625 C-56.95360596 150.12487793 -57.20408691 151.15209961 -57.4621582 152.21044922 C-58.75455259 157.64884479 -59.7593772 162.97333183 -60.328125 168.53515625 C-60.988125 168.53515625 -61.648125 168.53515625 -62.328125 168.53515625 C-62.4828125 170.10716797 -62.4828125 170.10716797 -62.640625 171.7109375 C-63.40773656 177.81187164 -64.92368822 183.74327836 -66.328125 189.72265625 C-70.77615898 208.92686644 -74.5432263 228.26796363 -78.35571289 247.60620117 C-79.23156513 252.0482193 -80.1108564 256.48952999 -80.99609375 260.9296875 C-81.32903442 262.60188354 -81.32903442 262.60188354 -81.66870117 264.30786133 C-82.37944799 267.7863368 -83.13025186 271.2547163 -83.890625 274.72265625 C-85.24275959 280.96382488 -86.34592802 287.22598506 -87.328125 293.53515625 C-87.988125 293.53515625 -88.648125 293.53515625 -89.328125 293.53515625 C-89.49828125 295.43587891 -89.49828125 295.43587891 -89.671875 297.375 C-90.26827689 302.74156704 -91.5034374 307.87081745 -92.828125 313.09765625 C-94.3796274 319.2460386 -95.67983705 325.2217156 -96.328125 331.53515625 C-96.988125 331.53515625 -97.648125 331.53515625 -98.328125 331.53515625 C-98.41707031 332.74171875 -98.50601563 333.94828125 -98.59765625 335.19140625 C-99.32259341 341.6690297 -101.18622059 347.79648294 -103.015625 354.03515625 C-103.37720703 355.27894043 -103.73878906 356.52272461 -104.11132812 357.80419922 C-107.86239609 370.56612911 -112.06205969 382.90843813 -117.390625 395.09765625 C-117.86532227 396.18747803 -117.86532227 396.18747803 -118.34960938 397.29931641 C-120.31284529 401.66419051 -122.56473564 405.69289442 -125.15649414 409.71557617 C-126.14057301 411.24388202 -127.0745641 412.80427752 -127.99609375 414.37109375 C-137.98473892 431.06163196 -137.98473892 431.06163196 -146.1328125 433.30859375 C-147.21949219 433.42074219 -147.21949219 433.42074219 -148.328125 433.53515625 C-148.328125 434.19515625 -148.328125 434.85515625 -148.328125 435.53515625 C-157.73814778 440.12741138 -157.73814778 440.12741138 -162.328125 439.53515625 C-162.328125 440.19515625 -162.328125 440.85515625 -162.328125 441.53515625 C-176.14445028 442.15226259 -186.22193449 440.52282487 -197.328125 431.53515625 C-198.91667371 429.86920725 -200.35915974 428.17978645 -201.74609375 426.34375 C-203.40036851 424.331819 -203.40036851 424.331819 -206.15625 422.375 C-210.11557376 419.14674079 -212.36937744 415.04086884 -214.890625 410.66015625 C-215.8059884 409.09873014 -216.72392993 407.53881237 -217.64453125 405.98046875 C-218.310896 404.84931641 -218.310896 404.84931641 -218.99072266 403.6953125 C-220.24618728 401.66750107 -221.58719456 399.76678888 -223.01171875 397.85546875 C-225.22612193 394.82578441 -226.57710594 391.84162471 -227.828125 388.28515625 C-229.25455466 384.27077565 -230.83645712 380.42757214 -232.66015625 376.58203125 C-235.86619805 369.59629729 -238.19059664 362.34723819 -240.515625 355.03515625 C-240.75045593 354.30339172 -240.98528687 353.5716272 -241.22723389 352.81768799 C-247.31872811 333.82042501 -252.74317976 314.63013098 -258.01477051 295.3914032 C-262.03668041 280.71852981 -266.28804418 266.16563313 -271.078125 251.72265625 C-271.3048288 251.0338739 -271.53153259 250.34509155 -271.7651062 249.63543701 C-274.22113999 242.20168782 -276.86253156 234.95005279 -280.24194336 227.87744141 C-281.33205311 225.52668551 -282.25234764 223.15593561 -283.140625 220.72265625 C-284.86789435 216.33045705 -287.01193464 212.26252967 -289.328125 208.16015625 C-289.66046143 207.56485107 -289.99279785 206.9695459 -290.33520508 206.35620117 C-291.87850349 203.68360449 -293.37836747 201.48543714 -295.578125 199.30859375 C-297.328125 197.53515625 -297.328125 197.53515625 -297.328125 194.53515625 C-289.51086102 193.81133551 -283.92029179 195.86742378 -277.75878906 200.78857422 C-273.76959872 204.18804785 -270.0230989 207.82090004 -266.328125 211.53515625 C-265.10222656 212.76105469 -265.10222656 212.76105469 -263.8515625 214.01171875 C-255.74905458 222.57231899 -249.6023826 232.71268332 -243.46484375 242.7265625 C-242.15883554 244.80450684 -240.7757235 246.82163813 -239.390625 248.84765625 C-236.54745734 253.06866669 -234.16626127 257.46762195 -231.77734375 261.95703125 C-230.49453753 264.2391124 -229.13485399 266.31016993 -227.578125 268.41015625 C-225.56566277 271.20524268 -224.57713567 273.38424297 -223.328125 276.53515625 C-222.44684226 278.13845377 -221.52841686 279.72177287 -220.578125 281.28515625 C-220.05476563 282.14753906 -219.53140625 283.00992187 -218.9921875 283.8984375 C-216.90215333 287.21011135 -214.69191076 290.42888458 -212.4296875 293.625 C-211.328125 295.53515625 -211.328125 295.53515625 -211.328125 298.53515625 C-210.338125 298.86515625 -209.348125 299.19515625 -208.328125 299.53515625 C-206.42578125 301.86328125 -206.42578125 301.86328125 -204.390625 304.78515625 C-195.9861226 317.28596707 -195.9861226 317.28596707 -183.328125 324.53515625 C-177.55521251 324.99332391 -174.38312052 324.64845427 -169.328125 321.53515625 C-163.1537472 313.87580151 -159.47427615 304.7681909 -156.328125 295.53515625 C-155.94269531 294.45492188 -155.55726563 293.3746875 -155.16015625 292.26171875 C-148.29556136 272.48990823 -143.37472958 252.18407229 -139.01464844 231.73535156 C-138.37558327 228.75638065 -137.71945946 225.78191859 -137.0546875 222.80859375 C-134.67499044 212.12447048 -132.5080294 201.4114698 -130.453125 190.66015625 C-127.46826554 175.05852917 -124.23403507 159.51640024 -120.86187744 143.9942627 C-120.2857521 141.33993563 -119.7119702 138.68510699 -119.13818359 136.03027344 C-118.0698555 131.09341391 -116.99235475 126.1586173 -115.9095459 121.22491455 C-115.48903082 119.30509383 -115.07056353 117.38482311 -114.65441895 115.46405029 C-111.90543086 102.79488614 -108.70697706 90.33731935 -105.02755737 77.90643311 C-104.38202183 75.71788202 -103.74837189 73.52643201 -103.12133789 71.33251953 C-96.8694918 49.46298465 -89.97135268 27.12158236 -76.328125 8.53515625 C-75.668125 8.53515625 -75.008125 8.53515625 -74.328125 8.53515625 C-74.07804688 7.95507812 -73.82796875 7.375 -73.5703125 6.77734375 C-68.69781197 -2.01767294 -58.04969978 -7.24565715 -48.8671875 -10.27734375 C-31.25340331 -14.49060774 -13.86953166 -11.38780074 0 0 Z " fill="#FCFCFC" transform="translate(674.328125,404.46484375)"/>
<path d="M0 0 C0.84046875 0.67804688 1.6809375 1.35609375 2.546875 2.0546875 C3.59101562 2.88613281 3.59101562 2.88613281 4.65625 3.734375 C8.81396534 7.16360176 12.16713064 10.75383957 14.95703125 15.40625 C16.48145533 17.9457083 18.09794898 20.39894398 19.734375 22.8671875 C27.18389115 34.5758152 32.57764664 47.14015444 37.546875 60.0546875 C37.83522217 60.75416504 38.12356934 61.45364258 38.4206543 62.17431641 C41.59304917 69.88843909 44.23468653 77.76751123 46.859375 85.6796875 C47.22261871 86.77065735 47.22261871 86.77065735 47.59320068 87.88366699 C50.92743456 97.91241517 54.08165161 107.97215603 56.97924805 118.13696289 C63.19648038 139.9371896 69.57829795 161.92804485 78.30322266 182.87011719 C79.14057884 184.8874969 79.96884316 186.90846543 80.796875 188.9296875 C81.20280884 189.89455078 81.20280884 189.89455078 81.61694336 190.87890625 C82.98554363 194.22878132 83.546875 196.36655228 83.546875 200.0546875 C79.86260924 199.81699294 78.64824358 199.15513175 75.9765625 196.5078125 C75.11217616 195.45045918 74.26087171 194.38229796 73.421875 193.3046875 C72.77798828 192.51578125 72.77798828 192.51578125 72.12109375 191.7109375 C70.18203682 189.30054057 68.44749606 186.8873611 66.8671875 184.2265625 C65.73217901 181.92568348 65.73217901 181.92568348 63.546875 181.0546875 C62.5768082 179.41560911 61.61285704 177.77236287 60.69140625 176.10546875 C59.4794172 173.93381602 58.21823113 171.80204046 56.921875 169.6796875 C56.51710938 169.01195312 56.11234375 168.34421875 55.6953125 167.65625 C54.62348584 165.89871883 54.62348584 165.89871883 52.546875 165.0546875 C51.57685 163.41850076 50.66998563 161.74457903 49.796875 160.0546875 C47.39877121 155.52885437 44.79970942 151.30466305 41.84375 147.125 C40.41973694 144.85172614 39.47462989 142.56662762 38.546875 140.0546875 C37.886875 140.0546875 37.226875 140.0546875 36.546875 140.0546875 C35.75263639 138.49349328 34.96160377 136.93066786 34.171875 135.3671875 C33.73101562 134.49707031 33.29015625 133.62695312 32.8359375 132.73046875 C31.62023232 130.20695951 30.55426542 127.66731218 29.546875 125.0546875 C28.886875 125.0546875 28.226875 125.0546875 27.546875 125.0546875 C27.2065625 124.38824219 26.86625 123.72179687 26.515625 123.03515625 C22.75625413 115.8863526 18.41691887 109.48626848 13.546875 103.0546875 C12.99644531 102.29800781 12.44601562 101.54132813 11.87890625 100.76171875 C9.0234528 96.84923369 6.02651951 93.44276242 2.546875 90.0546875 C1.7115625 88.8790625 1.7115625 88.8790625 0.859375 87.6796875 C-4.94605246 81.08974281 -14.1559102 74.82252501 -23.05004883 73.73803711 C-25.71687313 73.66378849 -28.34991892 73.70298778 -31.015625 73.8046875 C-32.38557617 73.83175781 -32.38557617 73.83175781 -33.78320312 73.859375 C-36.00766014 73.90596049 -38.22979467 73.97133265 -40.453125 74.0546875 C-40.453125 74.7146875 -40.453125 75.3746875 -40.453125 76.0546875 C-41.54625 76.4053125 -42.639375 76.7559375 -43.765625 77.1171875 C-53.92738254 80.96362741 -62.28058726 88.08436971 -70.453125 95.0546875 C-71.10152344 95.60253906 -71.74992188 96.15039062 -72.41796875 96.71484375 C-75.28719247 99.15465984 -78.11985768 101.63580349 -80.953125 104.1171875 C-81.61570312 104.69597656 -82.27828125 105.27476562 -82.9609375 105.87109375 C-84.34712977 107.08564153 -85.73211984 108.30157905 -87.11230469 109.52294922 C-94.60974767 116.15560989 -102.02175244 122.61763416 -110.453125 128.0546875 C-111.44570313 128.73273438 -112.43828125 129.41078125 -113.4609375 130.109375 C-122.02651979 135.74408335 -130.98822941 140.0546875 -141.453125 140.0546875 C-141.453125 140.7146875 -141.453125 141.3746875 -141.453125 142.0546875 C-144.093125 142.0546875 -146.733125 142.0546875 -149.453125 142.0546875 C-149.453125 142.7146875 -149.453125 143.3746875 -149.453125 144.0546875 C-166.75382376 148.24756273 -184.97462078 147.25216915 -202.640625 147.2421875 C-203.94206451 147.2429126 -205.24350403 147.2436377 -206.5843811 147.24438477 C-227.6001716 147.2430916 -248.49989 146.6789358 -269.453125 145.0546875 C-269.453125 144.3946875 -269.453125 143.7346875 -269.453125 143.0546875 C-269.9908252 143.07136475 -270.52852539 143.08804199 -271.08251953 143.10522461 C-278.51628611 143.22807787 -285.84446194 142.57241069 -293.23242188 141.82788086 C-295.34450432 141.61554079 -297.45729117 141.41174658 -299.5703125 141.20898438 C-310.7978153 140.10659558 -310.7978153 140.10659558 -314.453125 139.0546875 C-314.123125 138.0646875 -313.793125 137.0746875 -313.453125 136.0546875 C-312.58133102 136.02376511 -312.58133102 136.02376511 -311.69192505 135.99221802 C-256.68983357 134.73421059 -256.68983357 134.73421059 -202.42163086 126.48339844 C-199.63986094 125.87757083 -196.83929842 125.53219705 -194.015625 125.1796875 C-188.98333494 124.42746801 -184.68757241 123.222018 -180.0390625 121.18359375 C-177.09075732 119.89649375 -174.09570869 118.7942582 -171.078125 117.6796875 C-153.02344438 110.69009769 -136.88377641 100.12295954 -124.328125 85.2421875 C-122.12690786 82.67410083 -119.82141992 80.21669913 -117.515625 77.7421875 C-113.55632051 73.39588332 -110.03135702 68.91984118 -106.63671875 64.125 C-99.36924872 53.90633911 -91.68448925 43.98603102 -83.90234375 34.15625 C-81.89727104 31.61713081 -79.91954717 29.06114758 -77.953125 26.4921875 C-60.11295497 3.56093777 -60.11295497 3.56093777 -51.453125 -1.9453125 C-50.133125 -1.9453125 -48.813125 -1.9453125 -47.453125 -1.9453125 C-47.453125 -2.6053125 -47.453125 -3.2653125 -47.453125 -3.9453125 C-45.91475792 -4.59896649 -44.37223734 -5.24284853 -42.828125 -5.8828125 C-41.96960938 -6.24246094 -41.11109375 -6.60210937 -40.2265625 -6.97265625 C-25.73391999 -12.05528721 -11.83506938 -9.12704503 0 0 Z " fill="#FBFBFB" transform="translate(409.453125,510.9453125)"/>
<path d="M0 0 C0.33 0.66 0.66 1.32 1 2 C-0.92262051 5.84524102 -3.45374392 8.80570622 -6.4375 11.875 C-7.19933594 12.67679688 -7.96117187 13.47859375 -8.74609375 14.3046875 C-11 16 -11 16 -13.28515625 15.7578125 C-13.85105469 15.50773438 -14.41695312 15.25765625 -15 15 C-14.44570313 14.60167969 -13.89140625 14.20335937 -13.3203125 13.79296875 C-12.59585938 13.26316406 -11.87140625 12.73335937 -11.125 12.1875 C-10.04605469 11.40439453 -10.04605469 11.40439453 -8.9453125 10.60546875 C-6.76971345 8.96727223 -6.76971345 8.96727223 -5 6 C-4.34 6 -3.68 6 -3 6 C-2.690625 5.195625 -2.38125 4.39125 -2.0625 3.5625 C-1 1 -1 1 0 0 Z " fill="#3D3D3D" transform="translate(795,743)"/>
<path d="M0 0 C0.33 0.66 0.66 1.32 1 2 C1.66 2.33 2.32 2.66 3 3 C2.43410156 3.47050781 1.86820312 3.94101562 1.28515625 4.42578125 C0.55167969 5.04839844 -0.18179687 5.67101562 -0.9375 6.3125 C-2.03384766 7.23482422 -2.03384766 7.23482422 -3.15234375 8.17578125 C-5.23820366 9.95975519 -5.23820366 9.95975519 -6 13 C-8.5625 14.1875 -8.5625 14.1875 -11 15 C-7.63737574 9.75430616 -3.86435321 4.88471613 0 0 Z " fill="#D1D1D1" transform="translate(331,538)"/>
<path d="M0 0 C3.3 1.65 6.6 3.3 10 5 C10 5.66 10 6.32 10 7 C5.05 6.01 0.1 5.02 -5 4 C-5 3.67 -5 3.34 -5 3 C-3.35 2.67 -1.7 2.34 0 2 C0 1.34 0 0.68 0 0 Z " fill="#6B6B6B" transform="translate(913,623)"/>
<path d="M0 0 C4.20626034 1.50223584 5.73900021 4.28550034 8 8 C3.25 7.125 3.25 7.125 1 6 C0.375 2.9375 0.375 2.9375 0 0 Z " fill="#272727" transform="translate(411,600)"/>
<path d="M0 0 C2 2 2 2 2 6 C-0.4375 5.625 -0.4375 5.625 -3 5 C-3.33 4.34 -3.66 3.68 -4 3 C-2 1 -2 1 0 0 Z " fill="#E4E4E4" transform="translate(491,705)"/>
<path d="M0 0 C-0.66 1.65 -1.32 3.3 -2 5 C-2.33 4.34 -2.66 3.68 -3 3 C-3.5775 3.350625 -4.155 3.70125 -4.75 4.0625 C-7.39786506 5.16577711 -8.33185326 4.80156509 -11 4 C-9.5437455 3.32880451 -8.08492133 2.66318193 -6.625 2 C-5.81289062 1.62875 -5.00078125 1.2575 -4.1640625 0.875 C-2 0 -2 0 0 0 Z " fill="#BBBBBB" transform="translate(254,623)"/>
<path d="M0 0 C0.598125 0.350625 1.19625 0.70125 1.8125 1.0625 C1.4825 1.7225 1.1525 2.3825 0.8125 3.0625 C2.1325 3.7225 3.4525 4.3825 4.8125 5.0625 C0.0607602 4.63052365 -2.10750054 3.73480705 -5.1875 0.0625 C-2.1875 -0.9375 -2.1875 -0.9375 0 0 Z " fill="#B0B0B0" transform="translate(895.1875,642.9375)"/>
<path d="M0 0 C0 3 0 3 -1.3125 4.60546875 C-1.869375 5.12753906 -2.42625 5.64960938 -3 6.1875 C-3.556875 6.71730469 -4.11375 7.24710937 -4.6875 7.79296875 C-5.120625 8.19128906 -5.55375 8.58960938 -6 9 C-6.66 8.67 -7.32 8.34 -8 8 C-7.67 7.34 -7.34 6.68 -7 6 C-6.34 6 -5.68 6 -5 6 C-4.731875 5.38125 -4.46375 4.7625 -4.1875 4.125 C-3 2 -3 2 0 0 Z " fill="#C7C7C7" transform="translate(605,407)"/>
<path d="M0 0 C0.98120464 3.05263664 0.98120464 4.94736336 0 8 C0.66 8.33 1.32 8.66 2 9 C-0.475 10.485 -0.475 10.485 -3 12 C-2.25749403 7.91621717 -1.17076699 3.98060777 0 0 Z " fill="#A3A3A3" transform="translate(802,608)"/>
<path d="M0 0 C0.33 1.32 0.66 2.64 1 4 C1.66 4.33 2.32 4.66 3 5 C2.34 5 1.68 5 1 5 C1 6.98 1 8.96 1 11 C0.01 11 -0.98 11 -2 11 C-1.34 7.37 -0.68 3.74 0 0 Z " fill="#424242" transform="translate(612,573)"/>
<path d="M0 0 C0.66 0 1.32 0 2 0 C1.55123384 1.64846769 1.09069512 3.29373455 0.625 4.9375 C0.36976563 5.85402344 0.11453125 6.77054688 -0.1484375 7.71484375 C-1 10 -1 10 -3 11 C-2.25 3.375 -2.25 3.375 0 0 Z " fill="#424242" transform="translate(808,591)"/>
<path d="M0 0 C2.40034102 3.60051153 4.32187705 6.96144535 3.625 11.375 C3.41875 11.91125 3.2125 12.4475 3 13 C0.33409063 8.44573816 -0.31563182 5.26053037 0 0 Z " fill="#A0A0A0" transform="translate(749,664)"/>
<path d="M0 0 C0 0.66 0 1.32 0 2 C-1.32 2.33 -2.64 2.66 -4 3 C-4.33 4.65 -4.66 6.3 -5 8 C-6.32 7.01 -7.64 6.02 -9 5 C-7.87926138 4.16094435 -6.75325453 3.32892169 -5.625 2.5 C-4.99851562 2.0359375 -4.37203125 1.571875 -3.7265625 1.09375 C-2 0 -2 0 0 0 Z " fill="#BEBEBE" transform="translate(266,615)"/>
<path d="M0 0 C-0.66 1.65 -1.32 3.3 -2 5 C-2.66 5 -3.32 5 -4 5 C-4.33 5.66 -4.66 6.32 -5 7 C-5.66 6.34 -6.32 5.68 -7 5 C-2.25 0 -2.25 0 0 0 Z " fill="#D0D0D0" transform="translate(356,512)"/>
<path d="M0 0 C0.99 0.33 1.98 0.66 3 1 C1.25 3.0625 1.25 3.0625 -1 5 C-3.25 4.75 -3.25 4.75 -5 4 C-2.6875 1.9375 -2.6875 1.9375 0 0 Z " fill="#363636" transform="translate(785,754)"/>
<path d="M0 0 C2 4 2 4 2 6 C-0.5 7.625 -0.5 7.625 -3 9 C-2.01 6.03 -1.02 3.06 0 0 Z " fill="#404040" transform="translate(812,713)"/>
<path d="M0 0 C0.33 1.32 0.66 2.64 1 4 C1.66 4.33 2.32 4.66 3 5 C0.03 7.475 0.03 7.475 -3 10 C-2.01 6.7 -1.02 3.4 0 0 Z " fill="#B5B5B5" transform="translate(521,692)"/>
<path d="M0 0 C1.485 0.99 1.485 0.99 3 2 C2.67 5.3 2.34 8.6 2 12 C1.67 12 1.34 12 1 12 C0.67 8.04 0.34 4.08 0 0 Z " fill="#4A4A4A" transform="translate(735,598)"/>
</svg>
