<?xml version="1.0" encoding="UTF-8"?>
<svg version="1.1" xmlns="http://www.w3.org/2000/svg" width="500" height="500">
<path d="M0 0 C20.10053976 16.40860388 22.63745859 50.00484905 26.5 74.3125 C27.6159143 81.2791934 28.97892382 88.17285162 30.5 95.0625 C30.69327881 95.96653564 30.88655762 96.87057129 31.08569336 97.80200195 C32.42864992 103.73042309 34.38832513 109.04268699 37.0625 114.5 C40.22040548 113.83718552 40.22040548 113.83718552 41.203125 111.26171875 C41.75226563 109.73998047 41.75226563 109.73998047 42.3125 108.1875 C42.74433594 107.01058594 43.17617188 105.83367187 43.62109375 104.62109375 C44.65879007 101.68395886 45.66293103 98.73625065 46.66015625 95.78515625 C58.55021178 60.73698391 58.55021178 60.73698391 68.9609375 54.33203125 C72.90523081 52.77044301 76.90197265 52.97745364 81.0625 53.5 C84.25 55.0625 84.25 55.0625 87.0625 57.5 C87.61421875 57.974375 88.1659375 58.44875 88.734375 58.9375 C93.19064619 63.03884694 96.27997392 67.676126 99.38671875 72.8515625 C101.04424267 75.58726284 101.04424267 75.58726284 103.26953125 78.2109375 C105.0625 80.5 105.0625 80.5 105.0625 82.5 C105.619375 82.7475 106.17625 82.995 106.75 83.25 C109.0625 84.5 109.0625 84.5 111.125 86.375 C122.0688558 94.29183186 136.81942696 94.68795348 149.80224609 95.80322266 C151.12023193 95.91802979 151.12023193 95.91802979 152.46484375 96.03515625 C153.25366943 96.100979 154.04249512 96.16680176 154.85522461 96.23461914 C156.99358167 96.49171394 158.98792735 96.92952949 161.0625 97.5 C161.0625 98.49 161.0625 99.48 161.0625 100.5 C158.27091221 100.81321737 155.47923358 101.12558682 152.6875 101.4375 C151.91277344 101.52451172 151.13804687 101.61152344 150.33984375 101.70117188 C148.73198974 101.88056055 147.1238193 102.05713051 145.51538086 102.23120117 C143.93185791 102.40473146 142.34921514 102.58658985 140.76782227 102.77856445 C133.7799118 103.57645678 126.80793023 103.75355631 119.77758789 103.79516602 C118.43112675 103.806677 117.08471093 103.82711553 115.73852539 103.85668945 C102.43076386 104.14715273 91.36359373 101.62523739 80.0625 94.5 C80.0625 93.51 80.0625 92.52 80.0625 91.5 C86.6875 88.625 86.6875 88.625 90.0625 87.5 C82.79418619 86.57475816 82.79418619 86.57475816 75.98828125 88.68359375 C68.84190113 96.16313845 65.19924746 107.45949126 61.2109375 116.84375 C56.63636699 127.58887458 52.11424066 137.79883956 42.0625 144.5 C36.4890938 145.26323715 30.47133589 145.36626747 25.67578125 142.05859375 C10.25433256 127.15990603 6.66430737 98.84164813 3.0625 78.8125 C1.74786577 71.51245439 0.08667553 64.38711642 -1.9375 57.25 C-2.1746875 56.40477783 -2.411875 55.55955566 -2.65625 54.6887207 C-4.28129435 49.13961377 -6.10302015 43.56362037 -8.9375 38.5 C-9.5975 38.17 -10.2575 37.84 -10.9375 37.5 C-11.97082971 40.4912176 -12.96484379 43.48865637 -13.9375 46.5 C-14.30101562 47.62148437 -14.66453125 48.74296875 -15.0390625 49.8984375 C-19.78258728 65.01671185 -22.72061848 80.58441386 -25.87207031 96.09423828 C-37.36286434 152.63804651 -37.36286434 152.63804651 -47.9375 168.5 C-48.5975 168.5 -49.2575 168.5 -49.9375 168.5 C-49.9375 169.16 -49.9375 169.82 -49.9375 170.5 C-50.5975 170.5 -51.2575 170.5 -51.9375 170.5 C-52.30875 171.428125 -52.30875 171.428125 -52.6875 172.375 C-54.20888985 174.96136275 -55.1705879 175.41334075 -57.9375 176.5 C-64.08167099 177.21465433 -69.80375359 177.23363375 -74.9375 173.5 C-77.53632031 171.01443104 -79.76058223 168.35967834 -81.9375 165.5 C-82.4428125 164.83742188 -82.948125 164.17484375 -83.46875 163.4921875 C-92.58926445 149.95695595 -95.65203783 132.10134151 -100.08203125 116.58660889 C-104.48248141 100.24148604 -104.48248141 100.24148604 -112.12109375 85.27734375 C-113.9375 82.5 -113.9375 82.5 -113.6875 80.125 C-113.44 79.58875 -113.1925 79.0525 -112.9375 78.5 C-108.4298533 79.03031138 -105.51795212 80.75221116 -101.9375 83.5 C-101.9375 84.16 -101.9375 84.82 -101.9375 85.5 C-101.2775 85.5 -100.6175 85.5 -99.9375 85.5 C-98.33819389 87.61292941 -96.87738682 89.71843218 -95.4375 91.9375 C-94.99970215 92.60185059 -94.5619043 93.26620117 -94.11083984 93.95068359 C-90.31649739 99.77282661 -86.77679545 105.73718101 -83.33789062 111.77514648 C-81.12333969 115.63356854 -78.72786525 119.02159949 -75.9375 122.5 C-75.9375 123.16 -75.9375 123.82 -75.9375 124.5 C-75.2775 124.5 -74.6175 124.5 -73.9375 124.5 C-73.9375 125.16 -73.9375 125.82 -73.9375 126.5 C-73.2775 126.5 -72.6175 126.5 -71.9375 126.5 C-71.9375 127.16 -71.9375 127.82 -71.9375 128.5 C-68.60607722 129.00125283 -68.60607722 129.00125283 -64.9375 128.5 C-61.32678021 124.1052382 -59.63904932 119.45635937 -58 114.0625 C-57.61823608 112.82512085 -57.61823608 112.82512085 -57.22875977 111.56274414 C-52.55224296 95.93889352 -49.77567482 79.81695427 -46.74853516 63.81298828 C-36.9086163 12.17877488 -36.9086163 12.17877488 -22 0.125 C-15.8559644 -3.08880324 -6.1907528 -3.14450936 0 0 Z " fill="#F6F5F5" transform="translate(260.9375,154.5)"/>
<path d="M0 0 C13.21566794 10.91458693 17.68635097 30.50696251 22.4375 46.25 C23.25748255 48.95052775 24.08204111 51.64961164 24.91015625 54.34765625 C25.10968903 55.00085846 25.3092218 55.65406067 25.51480103 56.32705688 C27.28812793 62.06247576 29.33140706 67.68046256 31.45483398 73.29467773 C32.375 76.1875 32.375 76.1875 32.375 80.1875 C29.46325458 79.84303012 28.44584999 79.26097919 26.375 77.11328125 C25.385 75.81970703 25.385 75.81970703 24.375 74.5 C23.6840625 73.59765625 22.993125 72.6953125 22.28125 71.765625 C21.6521875 70.91484375 21.023125 70.0640625 20.375 69.1875 C19.9109375 68.56359375 19.446875 67.9396875 18.96875 67.296875 C17.11931415 64.6812443 16.375 63.4682044 16.375 60.1875 C15.715 60.1875 15.055 60.1875 14.375 60.1875 C13.8903125 59.29289062 13.405625 58.39828125 12.90625 57.4765625 C4.89800775 42.04761059 4.89800775 42.04761059 -8.625 32.1875 C-15.40107212 31.37538649 -19.92482241 34.23079442 -25.19140625 38.19921875 C-28.22391992 40.67682622 -31.16710309 43.2318789 -34.03125 45.90234375 C-35.625 47.1875 -35.625 47.1875 -37.625 47.1875 C-37.625 47.8475 -37.625 48.5075 -37.625 49.1875 C-51.44156718 59.16767629 -65.07707115 60.54020559 -81.5 60.4375 C-82.32426483 60.4353952 -83.14852966 60.43329041 -83.99777222 60.43112183 C-112.44377888 60.34555482 -112.44377888 60.34555482 -123.625 57.1875 C-123.625 56.1975 -123.625 55.2075 -123.625 54.1875 C-117.90660794 53.47270099 -112.27760283 53.06076893 -106.51855469 52.8972168 C-86.72987186 52.31784851 -65.83634201 50.74264862 -51.21777344 35.74365234 C-43.77133443 27.60505988 -37.24257748 18.59860007 -30.8046875 9.66015625 C-30.27101563 8.92667969 -29.73734375 8.19320312 -29.1875 7.4375 C-28.73503906 6.80328125 -28.28257812 6.1690625 -27.81640625 5.515625 C-27.42324219 5.07734375 -27.03007812 4.6390625 -26.625 4.1875 C-25.965 4.1875 -25.305 4.1875 -24.625 4.1875 C-24.625 3.5275 -24.625 2.8675 -24.625 2.1875 C-16.79416097 -2.48088481 -8.54210613 -5.28235988 0 0 Z " fill="#F3F2F3" transform="translate(160.625,197.8125)"/>
<path d="M0 0 C0.91330078 0.00451172 1.82660156 0.00902344 2.76757812 0.01367188 C4.99095738 0.0253126 7.21419121 0.04166149 9.4375 0.0625 C9.4375 0.3925 9.4375 0.7225 9.4375 1.0625 C2.39844956 2.00104006 -4.46522572 2.17058032 -11.5625 2.0625 C-11.5625 2.7225 -11.5625 3.3825 -11.5625 4.0625 C-10.88703125 4.03929687 -10.2115625 4.01609375 -9.515625 3.9921875 C-8.17757812 3.96511719 -8.17757812 3.96511719 -6.8125 3.9375 C-5.93078125 3.91429687 -5.0490625 3.89109375 -4.140625 3.8671875 C-1.4489142 4.07110498 0.13654974 4.69698279 2.4375 6.0625 C-0.47947011 5.92145309 -3.3959802 5.77485186 -6.3125 5.625 C-7.55 5.56602539 -7.55 5.56602539 -8.8125 5.50585938 C-9.61171875 5.46396484 -10.4109375 5.42207031 -11.234375 5.37890625 C-11.9675293 5.34224854 -12.70068359 5.30559082 -13.45605469 5.26782227 C-15.57427605 5.06135215 -17.5144456 4.63117914 -19.5625 4.0625 C-19.5625 3.0725 -19.5625 2.0825 -19.5625 1.0625 C-12.99550475 0.21406826 -6.61699407 -0.06311146 0 0 Z " fill="#C5C1C1" transform="translate(56.5625,250.9375)"/>
<path d="M0 0 C2.375 0.3125 2.375 0.3125 5 1 C5.66 1.99 6.32 2.98 7 4 C5.41058594 3.94779297 5.41058594 3.94779297 3.7890625 3.89453125 C2.40105748 3.86639601 1.01303537 3.83909557 -0.375 3.8125 C-1.07367188 3.78736328 -1.77234375 3.76222656 -2.4921875 3.73632812 C-4.76747677 3.67021439 -4.76747677 3.67021439 -8 4 C-8.99 5.485 -8.99 5.485 -10 7 C-10.66 7 -11.32 7 -12 7 C-12 6.01 -12 5.02 -12 4 C-4.71428571 0.57142857 -4.71428571 0.57142857 0 1 C0 0.67 0 0.34 0 0 Z " fill="#CBC6C7" transform="translate(353,242)"/>
<path d="M0 0 C0.66 0.33 1.32 0.66 2 1 C1.21625 1.2475 0.4325 1.495 -0.375 1.75 C-3.09873976 2.71679916 -3.09873976 2.71679916 -3.9375 4.875 C-5.16238968 7.32477936 -6.51280498 8.5289522 -8.625 10.25 C-9.25664062 10.77078125 -9.88828125 11.2915625 -10.5390625 11.828125 C-11.02117187 12.21484375 -11.50328125 12.6015625 -12 13 C-12 9.47967572 -11.29648649 8.5614657 -9 6 C-8.34 6 -7.68 6 -7 6 C-7 5.34 -7 4.68 -7 4 C-1.7265625 0.77734375 -1.7265625 0.77734375 0 0 Z " fill="#CECDCD" transform="translate(143,196)"/>
<path d="M0 0 C3.25696479 0.41755959 4.63443291 0.63443291 7 3 C6.01 3.33 5.02 3.66 4 4 C4 5.98 4 7.96 4 10 C-0.60921053 4.64736842 -0.60921053 4.64736842 -1 1 C-0.67 0.67 -0.34 0.34 0 0 Z " fill="#C8C7C7" transform="translate(148,233)"/>
<path d="M0 0 C0.33 0 0.66 0 1 0 C0.88512252 1.58409994 0.75765492 3.16728963 0.625 4.75 C0.55539063 5.63171875 0.48578125 6.5134375 0.4140625 7.421875 C0.00149945 9.99066382 -0.71160957 11.75841015 -2 14 C-2 12.35 -2 10.7 -2 9 C-2.66 8.67 -3.32 8.34 -4 8 C-3.34 8 -2.68 8 -2 8 C-1.34 5.36 -0.68 2.72 0 0 Z " fill="#C0BFBE" transform="translate(233,251)"/>
<path d="M0 0 C0 2 0 4 0 6 C-3.33333333 9 -3.33333333 9 -6 9 C-4.47291037 5.56404834 -2.40072955 2.88087546 0 0 Z " fill="#D3D2D3" transform="translate(129,209)"/>
</svg>
